<svg width="31" height="30" viewBox="0 0 31 30" fill="none" xmlns="http://www.w3.org/2000/svg">
<path fill-rule="evenodd" clip-rule="evenodd" d="M28.2212 15C28.2212 21.9035 22.4779 27.5 15.3934 27.5C8.30876 27.5 2.56557 21.9035 2.56557 15C2.56557 8.09644 8.30876 2.5 15.3934 2.5C22.4779 2.5 28.2212 8.09644 28.2212 15ZM20.5633 11.2121C20.9391 11.5782 20.9391 12.1718 20.5633 12.5379L14.1495 18.7879C13.7737 19.154 13.1647 19.154 12.7889 18.7879L10.2233 16.2879C9.84762 15.9217 9.84762 15.3282 10.2233 14.9621C10.5991 14.596 11.2082 14.596 11.5839 14.9621L13.4692 16.7991L16.3359 14.0056L19.2028 11.2121C19.5786 10.846 20.1876 10.846 20.5633 11.2121Z" fill="#007DFF"/>
</svg>
