<svg width="50" height="49" viewBox="0 0 50 49" fill="none" xmlns="http://www.w3.org/2000/svg">
<path fill-rule="evenodd" clip-rule="evenodd" d="M25 36.2315C31.9035 36.2315 37.5 30.8243 37.5 24.1543C37.5 17.4843 31.9035 12.0771 25 12.0771C18.0964 12.0771 12.5 17.4843 12.5 24.1543C12.5 30.8243 18.0964 36.2315 25 36.2315ZM25 32.2058C29.6023 32.2058 33.3333 28.6009 33.3333 24.1543C33.3333 19.7076 29.6023 16.1029 25 16.1029C20.3976 16.1029 16.6667 19.7076 16.6667 24.1543C16.6667 28.6009 20.3976 32.2058 25 32.2058Z" fill="#A8A8A8"/>
<path d="M37.5 10.0643C36.3494 10.0643 35.4167 10.9655 35.4167 12.0772C35.4167 13.1889 36.3494 14.0901 37.5 14.0901C38.6506 14.0901 39.5834 13.1889 39.5834 12.0772C39.5834 10.9655 38.6506 10.0643 37.5 10.0643Z" fill="#A8A8A8"/>
<path fill-rule="evenodd" clip-rule="evenodd" d="M3.44576 8.60707C2.08334 11.1905 2.08334 14.5724 2.08334 21.3363V26.9723C2.08334 33.7361 2.08334 37.1181 3.44576 39.7014C4.64418 41.9739 6.55643 43.8216 8.90847 44.9794C11.5824 46.2958 15.0827 46.2958 22.0833 46.2958H27.9167C34.9173 46.2958 38.4177 46.2958 41.0915 44.9794C43.4435 43.8216 45.3558 41.9739 46.5542 39.7014C47.9167 37.1181 47.9167 33.7361 47.9167 26.9723V21.3363C47.9167 14.5724 47.9167 11.1905 46.5542 8.60707C45.3558 6.33459 43.4435 4.48703 41.0915 3.32915C38.4177 2.01282 34.9173 2.01282 27.9167 2.01282H22.0833C15.0827 2.01282 11.5824 2.01282 8.90847 3.32915C6.55643 4.48703 4.64418 6.33459 3.44576 8.60707ZM27.9167 6.03854H22.0833C18.5143 6.03854 16.088 6.04168 14.2127 6.18971C12.3859 6.33391 11.4518 6.59528 10.8001 6.91609C9.23207 7.68802 7.95724 8.91973 7.15828 10.4347C6.82624 11.0643 6.55572 11.9669 6.40647 13.7319C6.25326 15.5438 6.25001 17.8879 6.25001 21.3363V26.9723C6.25001 30.4207 6.25326 32.7647 6.40647 34.5767C6.55572 36.3418 6.82624 37.2443 7.15828 37.874C7.95724 39.3888 9.23207 40.6205 10.8001 41.3924C11.4518 41.7133 12.3859 41.9748 14.2127 42.1189C16.088 42.2668 18.5143 42.27 22.0833 42.27H27.9167C31.4858 42.27 33.9119 42.2668 35.7873 42.1189C37.6142 41.9748 38.5483 41.7133 39.2 41.3924C40.7679 40.6205 42.0427 39.3888 42.8417 37.874C43.1738 37.2443 43.4444 36.3418 43.5935 34.5767C43.7467 32.7647 43.75 30.4207 43.75 26.9723V21.3363C43.75 17.8879 43.7467 15.5438 43.5935 13.7319C43.4444 11.9669 43.1738 11.0643 42.8417 10.4347C42.0427 8.91973 40.7679 7.68802 39.2 6.91609C38.5483 6.59528 37.6142 6.33391 35.7873 6.18971C33.9119 6.04168 31.4858 6.03854 27.9167 6.03854Z" fill="#A8A8A8"/>
</svg>
