<svg width="50" height="49" viewBox="0 0 50 49" fill="none" xmlns="http://www.w3.org/2000/svg">
<g clip-path="url(#clip0_17_181)">
<path d="M33.4172 7.4863C35.9984 7.4863 38.3297 8.50682 39.9719 10.1463C42.0156 9.76436 43.9406 9.06841 45.6719 8.10525C45.0031 10.0693 43.5781 11.7178 41.7266 12.7595C43.5391 12.5542 45.2734 12.1043 46.8844 11.431C45.6766 13.1173 44.1578 14.6013 42.4031 15.7878C42.4203 16.1486 42.4297 16.511 42.4297 16.8733C42.4297 27.9933 33.3953 40.8208 16.8766 40.8208C11.8062 40.8208 7.0828 39.4229 3.11249 37.0361C3.81405 37.1146 4.52811 37.1554 5.25311 37.1554C9.45936 37.1554 13.3344 35.8118 16.4078 33.5518C12.475 33.4869 9.15624 31.0504 8.01874 27.7095C8.56718 27.8092 9.12968 27.862 9.70936 27.862C10.525 27.862 11.3219 27.7608 12.0719 27.5676C7.96405 26.7962 4.86718 23.3949 4.86718 19.3144V19.2057C6.07968 19.8367 7.46249 20.2156 8.93749 20.2594C6.52655 18.7483 4.94061 16.1758 4.94061 13.2547C4.94061 11.7118 5.38436 10.264 6.1578 9.02614C10.5859 14.1152 17.2031 17.4666 24.6687 17.8183C24.5156 17.2039 24.4359 16.5547 24.4359 15.9011C24.4359 11.2529 28.4578 7.48479 33.4187 7.48479L33.4172 7.4863ZM33.4172 4.46701C27.2812 4.46701 22.1984 8.79818 21.4156 14.3944C16.3953 13.4192 11.8297 10.8528 8.54843 7.08473C7.95311 6.39935 7.07655 6.00836 6.15624 6.00836C6.07499 6.00836 5.99374 6.01138 5.91093 6.01741C4.90624 6.09592 3.99999 6.63637 3.47968 7.46969C2.38905 9.21635 1.81405 11.2166 1.81405 13.2562C1.81405 14.6179 2.06718 15.9418 2.54686 17.1828C2.03593 17.7323 1.74218 18.4493 1.74218 19.2072V19.3159C1.74218 22.2733 2.95155 25.0178 4.96249 27.074C4.84686 27.5918 4.87186 28.1337 5.04843 28.653C5.74218 30.6896 7.00311 32.4453 8.63905 33.7828C7.54061 34.0198 6.4078 34.1376 5.24999 34.1376C4.63749 34.1376 4.04218 34.1059 3.47968 34.038C3.35468 34.0229 3.23124 34.0168 3.1078 34.0168C1.7953 34.0168 0.603113 34.8154 0.162488 36.0352C-0.321887 37.3713 0.215613 38.8522 1.45936 39.5995C6.07499 42.3742 11.4062 43.8386 16.875 43.8386C34.65 43.8386 45.3422 30.3952 45.55 17.2613C47.0047 16.0973 48.2906 14.7522 49.3797 13.2441C49.7766 12.7399 50.0125 12.1103 50.0125 11.428C50.0125 10.3999 49.4812 9.49262 48.6703 8.94613C49.0203 7.78521 48.6203 6.52617 47.6437 5.75927C47.0734 5.3109 46.3734 5.08294 45.6719 5.08294C45.1344 5.08294 44.5953 5.21579 44.1109 5.48753C43.0781 6.0627 41.9734 6.51862 40.8094 6.84621C38.7047 5.31543 36.0953 4.46399 33.4156 4.46399L33.4172 4.46701Z" fill="#A8A8A8"/>
</g>
<defs>
<clipPath id="clip0_17_181">
<rect width="50" height="48.3087" fill="white"/>
</clipPath>
</defs>
</svg>
