<svg width="50" height="49" viewBox="0 0 50 49" fill="none" xmlns="http://www.w3.org/2000/svg">
<path d="M12.5292 16.1152C12.7672 14.2961 15.2141 11.8238 17.156 12.0981L17.1529 12.0951C19.0427 12.4421 20.5387 15.5848 21.3823 16.9979C21.98 18.0232 21.5919 19.062 21.0344 19.5003C20.2823 20.086 19.1062 20.8941 19.353 21.7055C19.7917 23.1479 25 28.18 27.5617 29.6106C28.5313 30.152 29.2344 28.7239 29.8348 27.9922C30.271 27.4294 31.3471 27.0931 32.4058 27.6486C33.9871 28.5383 35.4767 29.5723 36.8542 30.7364C37.5421 31.2919 37.7035 32.113 37.2269 32.9807C36.3873 34.5091 33.959 36.5246 32.1963 36.1149C29.1175 35.3998 16.6667 30.7364 12.6674 17.2261C12.4424 16.5869 12.4991 16.3453 12.5292 16.1152Z" fill="#A8A8A8"/>
<path fill-rule="evenodd" clip-rule="evenodd" d="M25 46.2958C22.4508 46.2958 21.0404 46.0315 18.75 45.2893L14.3634 47.4085C11.593 48.7468 8.33334 46.8004 8.33334 43.8077V39.2507C3.84699 35.2089 2.08334 30.5485 2.08334 24.1543C2.08334 11.9259 12.3435 2.01282 25 2.01282C37.6565 2.01282 47.9167 11.9259 47.9167 24.1543C47.9167 36.3826 37.6565 46.2958 25 46.2958ZM12.5 37.5002L11.1749 36.3063C7.68932 33.1663 6.25001 29.6556 6.25001 24.1543C6.25001 14.1492 14.6447 6.03854 25 6.03854C35.3554 6.03854 43.75 14.1492 43.75 24.1543C43.75 34.1594 35.3554 42.27 25 42.27C22.9465 42.27 21.9833 42.0909 20.0749 41.4725L18.4343 40.9409L12.5 43.8077V37.5002Z" fill="#A8A8A8"/>
</svg>
